<svg xmlns="http://www.w3.org/2000/svg" xmlns:xlink="http://www.w3.org/1999/xlink" width="85" height="85" viewBox="0 0 85 85">
  <defs>
    <clipPath id="clip-path">
      <circle id="صورة_المنتدي" data-name="صورة المنتدي" cx="28.5" cy="28.5" r="28.5" transform="translate(1432.85 790)" fill="#fff"/>
    </clipPath>
  </defs>
  <g id="community" transform="translate(-1418.85 -776)">
    <circle id="صورة_المنتدي-2" data-name="صورة المنتدي" cx="42.5" cy="42.5" r="42.5" transform="translate(1418.85 776)" fill="#9e5f0a"/>
    <g id="Mask_Group_2" data-name="Mask Group 2" clip-path="url(#clip-path)">
      <g id="conversation" transform="translate(1440.834 795.859)">
        <g id="Group_8" data-name="Group 8" transform="translate(0 0.447)">
          <g id="Group_7" data-name="Group 7">
            <path id="Path_3" data-name="Path 3" d="M40.884,32.329,38.5,25.393A17.35,17.35,0,0,0,23.21.449,17.331,17.331,0,0,0,5.6,17.552,12.629,12.629,0,0,0,1.766,33.069L.124,37.846A2.257,2.257,0,0,0,2.25,40.836a2.272,2.272,0,0,0,.739-.124L7.766,39.07a12.683,12.683,0,0,0,5.4,1.219h.02a12.611,12.611,0,0,0,10.2-5.185,17.386,17.386,0,0,0,7.162-1.753l6.936,2.383a2.7,2.7,0,0,0,.878.148,2.682,2.682,0,0,0,2.526-3.552Zm-27.7,5.517H13.17a10.214,10.214,0,0,1-4.744-1.178,1.222,1.222,0,0,0-.968-.075l-4.9,1.683,1.683-4.9a1.221,1.221,0,0,0-.075-.968A10.183,10.183,0,0,1,5.827,20.6a17.4,17.4,0,0,0,14.5,14.312A10.157,10.157,0,0,1,13.186,37.847Zm25.332-4.479a.221.221,0,0,1-.245.056l-7.425-2.551a1.221,1.221,0,0,0-.968.075,14.918,14.918,0,0,1-6.928,1.72H22.93A14.948,14.948,0,0,1,8.042,18.02a14.89,14.89,0,0,1,15.13-15.13A14.893,14.893,0,0,1,36.1,24.73a1.221,1.221,0,0,0-.075.968l2.551,7.425A.222.222,0,0,1,38.518,33.367Z" transform="translate(0 -0.447)" fill="#fff"/>
          </g>
        </g>
        <g id="Group_10" data-name="Group 10" transform="translate(14.433 11.306)">
          <g id="Group_9" data-name="Group 9">
            <path id="Path_4" data-name="Path 4" d="M35.821,15.532H21.271a1.221,1.221,0,0,0,0,2.442h14.55a1.221,1.221,0,0,0,0-2.442Z" transform="translate(-20.05 -15.532)" fill="#fff"/>
          </g>
        </g>
        <g id="Group_12" data-name="Group 12" transform="translate(14.433 16.328)">
          <g id="Group_11" data-name="Group 11">
            <path id="Path_5" data-name="Path 5" d="M35.821,22.509H21.271a1.221,1.221,0,0,0,0,2.442h14.55a1.221,1.221,0,0,0,0-2.442Z" transform="translate(-20.05 -22.509)" fill="#fff"/>
          </g>
        </g>
        <g id="Group_14" data-name="Group 14" transform="translate(14.433 21.351)">
          <g id="Group_13" data-name="Group 13">
            <path id="Path_6" data-name="Path 6" d="M30.22,29.486h-8.95a1.221,1.221,0,1,0,0,2.442H30.22a1.221,1.221,0,0,0,0-2.442Z" transform="translate(-20.049 -29.486)" fill="#fff"/>
          </g>
        </g>
      </g>
    </g>
  </g>
</svg>
